<?xml version="1.0" encoding="utf-8"?>
<!-- Generator: Adobe Illustrator 16.0.0, SVG Export Plug-In . SVG Version: 6.00 Build 0)  -->
<!DOCTYPE svg PUBLIC "-//W3C//DTD SVG 1.1//EN" "http://www.w3.org/Graphics/SVG/1.1/DTD/svg11.dtd">
<svg version="1.1" id="Layer_1" xmlns="http://www.w3.org/2000/svg" xmlns:xlink="http://www.w3.org/1999/xlink" x="0px" y="0px"
	 width="40px" height="40.001px" viewBox="31.296 14.444 40 40.001" enable-background="new 31.296 14.444 40 40.001"
	 xml:space="preserve">
<g>
	<path d="M51.43,14.444c-11.022-0.089-20.045,8.845-20.134,20c0,10.978,8.934,19.911,19.867,20c5.333,0.045,10.399-2,14.178-5.777
		c3.822-3.734,5.911-8.756,5.955-14.089v-0.133C71.296,23.466,62.362,14.533,51.43,14.444z M62.63,42.222H39.962
		c-0.578,0-0.933-0.622-0.622-1.155l11.333-18.223c0.311-0.489,0.978-0.489,1.245,0l11.333,18.223
		C63.562,41.6,63.208,42.222,62.63,42.222z"/>
	<path d="M51.297,36.222c-0.712,0-1.29,0.578-1.29,1.289v0.044c0,0.711,0.578,1.289,1.29,1.289c0.71,0,1.288-0.578,1.288-1.289
		v-0.044C52.585,36.8,52.007,36.222,51.297,36.222z"/>
	<path d="M51.297,28.667c-0.712,0-1.29,0.578-1.29,1.289v3.689c0,0.711,0.578,1.289,1.29,1.289c0.71,0,1.288-0.578,1.288-1.289
		v-3.689C52.585,29.245,52.007,28.667,51.297,28.667z"/>
</g>
</svg>
