<?xml version="1.0" encoding="utf-8"?>
<!-- Generator: Adobe Illustrator 16.0.0, SVG Export Plug-In . SVG Version: 6.00 Build 0)  -->
<!DOCTYPE svg PUBLIC "-//W3C//DTD SVG 1.1//EN" "http://www.w3.org/Graphics/SVG/1.1/DTD/svg11.dtd">
<svg version="1.1" id="Layer_1" xmlns="http://www.w3.org/2000/svg" xmlns:xlink="http://www.w3.org/1999/xlink" x="0px" y="0px"
	 width="40px" height="43.895px" viewBox="31.296 12.497 40 43.895" enable-background="new 31.296 12.497 40 43.895"
	 xml:space="preserve">
<g id="jkqO5e.tif" display="none">
</g>
<g>
	<rect x="52.652" y="31.227" width="8.056" height="6.719"/>
	<path d="M68.943,16.392h-5.295v-1.747c0-1.18-0.965-2.148-2.148-2.148h-1.585c-1.183,0-2.148,0.968-2.148,2.148v1.747H44.826
		v-1.747c0-1.18-0.966-2.148-2.148-2.148h-1.586c-1.182,0-2.148,0.968-2.148,2.148v1.747h-5.294c-1.293,0-2.353,1.06-2.353,2.353
		v35.294c0,1.294,1.06,2.353,2.353,2.353h35.294c1.294,0,2.353-1.059,2.353-2.353V18.745C71.296,17.451,70.237,16.392,68.943,16.392
		z M67.768,52.403H34.825V26.521h32.941L67.768,52.403L67.768,52.403z"/>
</g>
</svg>
