<?xml version="1.0" encoding="utf-8"?>
<!-- Generator: Adobe Illustrator 16.0.0, SVG Export Plug-In . SVG Version: 6.00 Build 0)  -->
<!DOCTYPE svg PUBLIC "-//W3C//DTD SVG 1.1//EN" "http://www.w3.org/Graphics/SVG/1.1/DTD/svg11.dtd">
<svg version="1.1" id="Layer_1" xmlns="http://www.w3.org/2000/svg" xmlns:xlink="http://www.w3.org/1999/xlink" x="0px" y="0px"
	 width="40px" height="40px" viewBox="51.896 -26.755 40 40" enable-background="new 51.896 -26.755 40 40" xml:space="preserve">
<path d="M71.896-26.755c-11.045,0-20,8.955-20,20s8.955,20,20,20s20-8.955,20-20S82.941-26.755,71.896-26.755z M82.458,2.427
	l-1.602,1.602c-0.286,0.285-1.123,0.464-1.15,0.464c-5.065,0.044-9.943-1.946-13.527-5.53c-3.594-3.596-5.586-8.491-5.532-13.575
	c0-0.002,0.184-0.815,0.469-1.098l1.602-1.602c0.586-0.588,1.712-0.854,2.5-0.591l0.337,0.112c0.786,0.264,1.611,1.133,1.829,1.934
	l0.806,2.957c0.217,0.803-0.076,1.946-0.662,2.532l-1.069,1.069c1.05,3.886,4.099,6.936,7.985,7.988l1.069-1.07
	c0.589-0.588,1.731-0.881,2.532-0.664l2.957,0.808c0.8,0.22,1.669,1.04,1.933,1.826l0.113,0.342
	C83.308,0.717,83.044,1.843,82.458,2.427z"/>
</svg>
