<?xml version="1.0" encoding="utf-8"?>
<!-- Generator: Adobe Illustrator 16.0.0, SVG Export Plug-In . SVG Version: 6.00 Build 0)  -->
<!DOCTYPE svg PUBLIC "-//W3C//DTD SVG 1.1//EN" "http://www.w3.org/Graphics/SVG/1.1/DTD/svg11.dtd">
<svg version="1.1" id="Your_Icon" xmlns="http://www.w3.org/2000/svg" xmlns:xlink="http://www.w3.org/1999/xlink" x="0px" y="0px"
	 width="40px" height="40px" viewBox="31.291 14.45 40 40" enable-background="new 31.291 14.45 40 40" xml:space="preserve">
<path d="M51.291,14.45c-11.046,0-20,8.952-20,20c0,11.046,8.954,20,20,20s20-8.957,20-20C71.291,23.402,62.337,14.45,51.291,14.45z
	 M58.936,41.832c-2.812,1.596-11.479,6.689-11.479,6.689l2.731-5.293c-7.537-0.369-13.479-4.474-13.479-9.5
	c0-5.268,6.528-9.537,14.584-9.537c8.058,0,14.585,4.271,14.585,9.537C65.877,37.329,61.591,40.324,58.936,41.832z"/>
</svg>
