<?xml version="1.0" encoding="utf-8"?>
<!-- Generator: Adobe Illustrator 16.0.0, SVG Export Plug-In . SVG Version: 6.00 Build 0)  -->
<!DOCTYPE svg PUBLIC "-//W3C//DTD SVG 1.1//EN" "http://www.w3.org/Graphics/SVG/1.1/DTD/svg11.dtd">
<svg version="1.1" id="Layer_1" xmlns="http://www.w3.org/2000/svg" xmlns:xlink="http://www.w3.org/1999/xlink" x="0px" y="0px"
	 width="40px" height="40px" viewBox="30 30 40 40" enable-background="new 30 30 40 40" xml:space="preserve">
<path d="M50,30c-11.023,0-20,8.934-20,20s8.977,20,20,20c11.066,0,20-8.934,20-20S61.066,30,50,30L50,30z M50,53.69
	c-0.578,0-1.023,0.442-1.023,1.021v0.179c0,0.622,0.445,1.023,1.023,1.023s1.023-0.445,1.023-1.023v-0.179
	C51.023,54.133,50.578,53.69,50,53.69L50,53.69z M50,44.044c-0.844,0-1.556,0.8-1.466,1.644l0.489,6.18
	c0.043,0.531,0.442,0.933,0.933,0.977c0.578,0.044,1.067-0.401,1.11-0.977l0.489-6.18C51.601,44.844,50.89,44.044,50,44.044
	L50,44.044z M61.155,40.89c0.622,0,1.111,0.532,1.111,1.156V58c0,0.667-0.489,1.11-1.111,1.11h-8.621l-2.135,3.022
	c-0.09,0.136-0.223,0.224-0.399,0.224s-0.31-0.134-0.399-0.224l-2.046-3.022h-8.621c-0.667,0-1.156-0.443-1.156-1.11V42.044
	c0-0.622,0.489-1.156,1.156-1.156h22.222V40.89z"/>
</svg>
