<?xml version="1.0" encoding="utf-8"?>
<!-- Generator: Adobe Illustrator 16.0.0, SVG Export Plug-In . SVG Version: 6.00 Build 0)  -->
<!DOCTYPE svg PUBLIC "-//W3C//DTD SVG 1.1//EN" "http://www.w3.org/Graphics/SVG/1.1/DTD/svg11.dtd">
<svg version="1.1" id="Layer_1" xmlns="http://www.w3.org/2000/svg" xmlns:xlink="http://www.w3.org/1999/xlink" x="0px" y="0px"
	 width="40px" height="40px" viewBox="23.648 9.187 40 40" enable-background="new 23.648 9.187 40 40" xml:space="preserve">
<g id="Circle">
</g>
<path d="M43.648,9.187c11.045,0,20,8.954,20,20c0,11.045-8.955,20-20,20c-11.046,0-20-8.955-20-20
	C23.648,18.141,32.602,9.187,43.648,9.187z M55.682,35.776L55.676,22.91l-7.665,5.275L55.682,35.776z M46.749,28.895l-2.728,1.828
	c-0.116,0.076-0.25,0.115-0.382,0.115c-0.134,0-0.266-0.038-0.381-0.114l-2.792-1.882l-7.903,7.819h22.184L46.749,28.895z
	 M39.278,28.039l-7.646-5.155v12.845L39.278,28.039z M43.638,29.304l11.106-7.46H32.581L43.638,29.304z"/>
</svg>
