<?xml version="1.0" encoding="utf-8"?>
<!-- Generator: Adobe Illustrator 16.0.0, SVG Export Plug-In . SVG Version: 6.00 Build 0)  -->
<!DOCTYPE svg PUBLIC "-//W3C//DTD SVG 1.1//EN" "http://www.w3.org/Graphics/SVG/1.1/DTD/svg11.dtd">
<svg version="1.1" id="Layer_1" xmlns="http://www.w3.org/2000/svg" xmlns:xlink="http://www.w3.org/1999/xlink" x="0px" y="0px"
	 width="15px" height="13.375px" viewBox="43.297 28.757 15 13.375" enable-background="new 43.297 28.757 15 13.375"
	 xml:space="preserve">
<g>
	<path fill="#FF6400" d="M48.468,34.778l1.373-3.055l1.844,6.033l1.456-2.978h4.655c0.281-0.624,0.501-1.301,0.501-1.985
		c0-2.229-1.808-4.036-4.035-4.036c-1.459,0-2.727,0.781-3.465,1.936c-0.74-1.154-2.006-1.936-3.465-1.936
		c-2.229,0-4.035,1.807-4.035,4.036c0,0.684,0.218,1.361,0.501,1.985H48.468z"/>
	<path fill="#FF6400" d="M53.453,35.278l-1.879,3.833l-1.822-5.966l-0.961,2.133h-4.755c0.862,1.612,2.277,2.983,3.595,4.206
		c1.008,0.935,2.065,1.824,3.166,2.648c1.1-0.825,2.156-1.714,3.164-2.648c1.318-1.222,2.734-2.593,3.596-4.206H53.453z"/>
</g>
</svg>
