<?xml version="1.0" encoding="utf-8"?>
<!-- Generator: Adobe Illustrator 16.0.0, SVG Export Plug-In . SVG Version: 6.00 Build 0)  -->
<!DOCTYPE svg PUBLIC "-//W3C//DTD SVG 1.1//EN" "http://www.w3.org/Graphics/SVG/1.1/DTD/svg11.dtd">
<svg version="1.1" id="Layer_1" xmlns="http://www.w3.org/2000/svg" xmlns:xlink="http://www.w3.org/1999/xlink" x="0px" y="0px"
	 width="30.6px" height="45px" viewBox="0 0 30.6 45" enable-background="new 0 0 30.6 45" xml:space="preserve">
<path fill="#010101" d="M30.577,3.403C30.092,0.168,17.805,0,15.3,0C12.795,0,0.508,0.168,0.023,3.403C0.01,3.466,0,3.533,0,3.6V9
	c0,1.002,1.094,1.724,2.7,2.247V40.5c0,2.954,6.338,4.5,12.6,4.5c6.261,0,12.6-1.546,12.6-4.5v-8.099c0,0,0,0,0-0.002l0,0V18.007
	v-6.76c1.605-0.523,2.7-1.246,2.7-2.247V3.6C30.6,3.533,30.591,3.466,30.577,3.403z M15.3,1.8c7.845,0,12.354,1.108,13.361,1.8
	C27.655,4.291,23.145,5.4,15.3,5.4S2.946,4.291,1.938,3.6C2.946,2.909,7.456,1.8,15.3,1.8z M26.1,40.5 M15.3,35.101
	c-6.7,0-10.8-1.748-10.8-2.701l0,0V19.451c3.208,1.246,8.208,1.249,10.8,1.249c2.592,0,7.591-0.003,10.8-1.249v12.951
	C26.099,33.353,21.999,35.101,15.3,35.101z M18.901,26.101H17.1V24.3c0-0.496-0.403-0.9-0.9-0.9h-1.8c-0.497,0-0.9,0.404-0.9,0.9
	v1.801H11.7c-0.497,0-0.9,0.402-0.9,0.899v1.8c0,0.497,0.403,0.9,0.9,0.9H13.5v1.801c0,0.496,0.403,0.898,0.9,0.898h1.8
	c0.497,0,0.9-0.402,0.9-0.898V29.7h1.801c0.495,0,0.899-0.403,0.899-0.9V27C19.8,26.503,19.396,26.101,18.901,26.101z"/>
</svg>
