<?xml version="1.0" encoding="utf-8"?>
<!-- Generator: Adobe Illustrator 16.0.0, SVG Export Plug-In . SVG Version: 6.00 Build 0)  -->
<!DOCTYPE svg PUBLIC "-//W3C//DTD SVG 1.1//EN" "http://www.w3.org/Graphics/SVG/1.1/DTD/svg11.dtd">
<svg version="1.1" id="Layer_1" xmlns="http://www.w3.org/2000/svg" xmlns:xlink="http://www.w3.org/1999/xlink" x="0px" y="0px"
	 width="40px" height="39.999px" viewBox="31.295 14.444 40 39.999" enable-background="new 31.295 14.444 40 39.999"
	 xml:space="preserve">
<path d="M51.296,14.444c-10.978,0-19.912,8.934-20,19.866c-0.045,5.333,2,10.401,5.776,14.179c3.734,3.821,8.755,5.91,14.089,5.954
	h0.133c10.978,0,19.912-8.933,20-19.865C71.384,23.555,62.451,14.533,51.296,14.444z M51.296,25.555
	c3.245,0,5.912,2.667,5.912,5.911s-2.667,5.957-5.912,5.957c-3.244,0-5.911-2.667-5.911-5.91
	C45.385,28.266,48.052,25.555,51.296,25.555z M62.674,47.377c-3.067,2.667-7.067,4.311-11.422,4.311h-0.044v0.047
	c-4.223-0.047-8.178-1.558-11.288-4.312v-0.046v-0.223c0-2.087,0.621-4.044,1.777-5.777c1.066-1.51,2.489-2.711,4.133-3.466
	c1.466,1.243,3.378,2,5.466,2c2.09,0,4-0.757,5.468-2c1.645,0.754,3.069,1.953,4.135,3.466c1.154,1.69,1.778,3.69,1.778,5.777v0.223
	H62.674z"/>
</svg>
