<?xml version="1.0" encoding="utf-8"?>
<!-- Generator: Adobe Illustrator 16.0.0, SVG Export Plug-In . SVG Version: 6.00 Build 0)  -->
<!DOCTYPE svg PUBLIC "-//W3C//DTD SVG 1.1//EN" "http://www.w3.org/Graphics/SVG/1.1/DTD/svg11.dtd">
<svg version="1.1" id="Layer_1" xmlns="http://www.w3.org/2000/svg" xmlns:xlink="http://www.w3.org/1999/xlink" x="0px" y="0px"
	 width="40px" height="35.827px" viewBox="30.477 15.763 40 35.827" enable-background="new 30.477 15.763 40 35.827"
	 xml:space="preserve">
<g id="Layer_1_1_">
</g>
<g id="Layer_2">
	<path fill="#FF6400" d="M68.143,32.42c-3.361-10.01-10.159-11.279-10.159-11.279c-1.345-0.673-1.494-0.748-3.137,0.225
		c-1.644,0.971-1.196,3.884-1.121,4.781c0.022,0.278-0.011,0.845-0.071,1.495c-1.124-0.333-1.954-1.124-2.491-1.816
		c-0.04-3.719,0.471-10.062,0.471-10.062h-2.391c0,0,0.356,5.922,0.244,9.824c-0.58,0.757-1.465,1.322-2.219,1.7
		c-0.04-0.498-0.06-0.916-0.041-1.141c0.075-0.897,0.523-3.81-1.12-4.781c-1.644-0.972-1.792-0.896-3.137-0.225
		c0,0-6.798,1.27-10.159,11.279c-3.361,10.01-2.989,16.06,0.448,18.001c3.436,1.942,9.936,1.196,12.4-0.298
		c2.465-1.494,1.718-4.482,1.643-5.677c-0.075-1.196,0.224-4.034,0.448-5.005c0.145-0.629,0.135-3.708,0.066-6
		c1.13-1.362,2.324-1.32,2.324-1.32c1.44-0.047,2.448,0.983,2.985,1.727c-0.058,2.234-0.06,5,0.077,5.593
		c0.225,0.971,0.523,3.809,0.447,5.005c-0.075,1.195-0.821,4.183,1.643,5.677c2.467,1.494,8.966,2.24,12.401,0.298
		S71.504,42.429,68.143,32.42z"/>
</g>
</svg>
