<?xml version="1.0" encoding="utf-8"?>
<!-- Generator: Adobe Illustrator 16.0.0, SVG Export Plug-In . SVG Version: 6.00 Build 0)  -->
<!DOCTYPE svg PUBLIC "-//W3C//DTD SVG 1.1//EN" "http://www.w3.org/Graphics/SVG/1.1/DTD/svg11.dtd">
<svg version="1.1" id="Layer_1" xmlns="http://www.w3.org/2000/svg" xmlns:xlink="http://www.w3.org/1999/xlink" x="0px" y="0px"
	 width="40px" height="41.14px" viewBox="4.622 -4.037 40 41.14" enable-background="new 4.622 -4.037 40 41.14"
	 xml:space="preserve">
<g>
	<path d="M15.342,15.482c0.102,0.045,0.193,0.106,0.276,0.172c2.013-0.184,4.536-0.285,7.719-0.281v-4.14
		c-9.867,0.009-11.706,1.193-12.012,1.505C11.584,13.365,13.467,14.658,15.342,15.482z"/>
	<path d="M36.084,7.664C35.682,6.936,33.873,5.31,25.908,5.6v3.062c4.744,0.004,7.944,0.267,10.104,0.694
		C36.209,8.918,36.399,8.24,36.084,7.664z"/>
	<path d="M14.679,22.183c0.189,0.08,0.344,0.199,0.47,0.342c1.978-0.275,4.628-0.436,8.188-0.438v-4.143
		c-10.445,0.002-12.553,1.17-12.945,1.518C10.739,20.103,12.726,21.374,14.679,22.183z"/>
	<path d="M13.155,7.674c-0.31,0.574-0.117,1.251,0.078,1.685c2.163-0.428,5.362-0.691,10.104-0.697V5.6
		C15.35,5.304,13.548,6.944,13.155,7.674z"/>
	<path d="M41.232-4.037H8.009c-1.87,0-3.387,1.521-3.387,3.39v34.361c0,1.867,1.517,3.389,3.387,3.389h33.224
		c1.87,0,3.39-1.521,3.39-3.389V-0.647C44.622-2.516,43.103-4.037,41.232-4.037z M37.836,23.46c1.384,0.607,1.855,1.358,2.029,2.14
		c0.589,2.636-3.517,4.832-5.306,5.651c-0.176,0.082-0.358,0.119-0.535,0.119c-0.484,0-0.954-0.278-1.169-0.75
		c-0.297-0.643-0.014-1.407,0.633-1.704c1.825-0.84,3.641-2.145,3.849-2.757c-0.245-0.258-1.917-1.489-11.427-1.501v4.987
		c0,0.709-0.578,1.286-1.287,1.286s-1.285-0.577-1.285-1.286v-4.987c-9.519,0.009-11.187,1.243-11.429,1.5
		c0.208,0.61,2.024,1.918,3.847,2.757c0.645,0.299,0.928,1.061,0.631,1.705c-0.215,0.472-0.68,0.75-1.167,0.75
		c-0.18,0-0.362-0.037-0.534-0.121c-1.793-0.818-5.896-3.017-5.306-5.65c0.175-0.781,0.642-1.537,2.021-2.145
		c-1.924-1.074-3.944-2.67-3.572-4.504c0.205-1.01,0.94-1.98,3.628-2.655c-1.589-1.06-3.018-2.491-2.673-4.094
		c0.164-0.768,0.623-1.508,1.976-2.11c-0.384-1.027-0.552-2.367,0.135-3.638c1.377-2.549,5.454-3.668,12.444-3.426V2.984
		c0-0.709,0.575-1.285,1.285-1.285c0.709,0,1.286,0.576,1.286,1.285v0.041c6.988-0.246,11.066,0.877,12.442,3.427
		c0.687,1.27,0.52,2.609,0.137,3.637c1.352,0.603,1.808,1.344,1.975,2.112c0.344,1.608-1.089,3.039-2.686,4.1
		c2.695,0.675,3.433,1.64,3.639,2.65C41.786,20.786,39.764,22.384,37.836,23.46z"/>
	<path d="M33.899,15.483c1.875-0.828,3.758-2.122,4.019-2.743c-0.305-0.312-2.133-1.501-12.011-1.507v4.141
		c3.173,0,5.695,0.105,7.707,0.288C33.701,15.592,33.794,15.529,33.899,15.483z"/>
	<path d="M25.908,22.088c3.554,0.005,6.202,0.167,8.182,0.444c0.125-0.146,0.283-0.269,0.474-0.35
		c1.953-0.807,3.942-2.08,4.288-2.72c-0.393-0.348-2.502-1.524-12.943-1.519V22.088z"/>
</g>
</svg>
