<svg xmlns="http://www.w3.org/2000/svg" xmlns:xlink="http://www.w3.org/1999/xlink" version="1.1" id="Layer_1" x="0px" y="0px" width="100px" height="100px" viewBox="5.0 -10.0 100.0 135.0" enable-background="new 0 0 100 100" xml:space="preserve">
<path d="M83.949,7.562C82.872,0.375,55.566,0,50,0S17.129,0.375,16.052,7.562C16.021,7.703,16,7.85,16,8v12  c0,2.227,2.431,3.831,6,4.993L22,90c0,6.565,14.086,10,28,10s28-3.435,28-10V72.002c0-0.001,0-0.001,0-0.002v-0.001l0-31.983V24.993  c3.569-1.161,6-2.767,6-4.993V8C84,7.85,83.98,7.703,83.949,7.562z M50,4c17.432,0,27.454,2.464,29.693,4  C77.455,9.536,67.432,12,50,12S22.546,9.536,20.307,8C22.546,6.464,32.569,4,50,4z M74,90c0,2.115-9.112,6-24,6s-24-3.885-24-6  V77.407C31.168,80.437,40.62,82,50,82s18.832-1.563,24-4.592V90z M50,78c-14.888,0-24-3.885-24-6v-0.001l0-28.775  C33.13,45.992,44.241,46,50,46c5.759,0,16.869-0.008,24-2.776l0,28.777C73.999,74.116,64.888,78,50,78z M26,38.846V26.032  C34.738,27.854,46.549,28,50,28s15.262-0.146,24-1.968v12.813C68.008,41.993,55.042,42,50,42C44.958,42,31.991,41.993,26,38.846z   M80,19.747C78.572,21.247,68.425,24,50,24s-28.572-2.753-30-4.253v-7.511C28.011,15.77,45.649,16,50,16s21.99-0.23,30-3.764V19.747  z M58,58h-4v-4c0-1.104-0.896-2-2-2h-4c-1.104,0-2,0.896-2,2v4h-4c-1.104,0-2,0.896-2,2v4c0,1.104,0.896,2,2,2h4v4  c0,1.104,0.896,2,2,2h4c1.104,0,2-0.896,2-2v-4h4c1.104,0,2-0.896,2-2v-4C60,58.896,59.104,58,58,58z"/>
<text x="0.0" y="117.5" font-size="5.0" font-weight="bold" font-family="Helvetica Neue, Helvetica, Arial-Unicode, Arial, Sans-serif" fill="#000000">Created by Yorlmar Campos</text><text x="0.0" y="122.5" font-size="5.0" font-weight="bold" font-family="Helvetica Neue, Helvetica, Arial-Unicode, Arial, Sans-serif" fill="#000000">from the Noun Project</text></svg>