<?xml version="1.0" encoding="utf-8"?>
<!-- Generator: Adobe Illustrator 16.0.0, SVG Export Plug-In . SVG Version: 6.00 Build 0)  -->
<!DOCTYPE svg PUBLIC "-//W3C//DTD SVG 1.1//EN" "http://www.w3.org/Graphics/SVG/1.1/DTD/svg11.dtd">
<svg version="1.1" id="Layer_1" xmlns="http://www.w3.org/2000/svg" xmlns:xlink="http://www.w3.org/1999/xlink" x="0px" y="0px"
	 width="15px" height="16.763px" viewBox="43.796 26.063 15 16.763" enable-background="new 43.796 26.063 15 16.763"
	 xml:space="preserve">
<path id="temp-up" fill="#FF6400" d="M48.948,36.646v-5.98H46.75v5.979c-0.771,0.4-1.305,1.197-1.305,2.126
	c0,1.328,1.077,2.404,2.404,2.404s2.404-1.077,2.404-2.404C50.253,37.843,49.72,37.045,48.948,36.646z M50.597,28.811
	c0-1.515-1.233-2.748-2.749-2.748s-2.746,1.233-2.746,2.748v6.994c-0.823,0.754-1.306,1.821-1.306,2.968
	c0,2.234,1.819,4.054,4.054,4.054c2.234,0,4.052-1.82,4.052-4.054c0-1.146-0.482-2.214-1.305-2.969V28.811z M50.803,38.773
	c0,1.628-1.325,2.953-2.954,2.953c-1.628,0-2.953-1.325-2.953-2.953c0-0.986,0.492-1.892,1.306-2.439v-7.522
	c0-0.908,0.738-1.648,1.647-1.648s1.648,0.739,1.648,1.648v7.522C50.31,36.881,50.803,37.787,50.803,38.773z M58.699,34.914
	l-2.605-4.515c-0.229-0.396-0.601-0.396-0.83,0l-2.606,4.515c-0.228,0.394-0.041,0.717,0.415,0.717h0.211
	c0.456,0,0.828,0.372,0.828,0.828v1.5c0,0.456,0.373,0.828,0.827,0.828h1.479c0.456,0,0.829-0.373,0.829-0.828v-1.5
	c0-0.456,0.371-0.828,0.827-0.828h0.211C58.74,35.63,58.926,35.308,58.699,34.914z"/>
</svg>
