<?xml version="1.0" encoding="utf-8"?>
<!-- Generator: Adobe Illustrator 16.0.0, SVG Export Plug-In . SVG Version: 6.00 Build 0)  -->
<!DOCTYPE svg PUBLIC "-//W3C//DTD SVG 1.1//EN" "http://www.w3.org/Graphics/SVG/1.1/DTD/svg11.dtd">
<svg version="1.1" id="Layer_1" xmlns="http://www.w3.org/2000/svg" xmlns:xlink="http://www.w3.org/1999/xlink" x="0px" y="0px"
	 width="40px" height="39.999px" viewBox="31.296 14.445 40 39.999" enable-background="new 31.296 14.445 40 39.999"
	 xml:space="preserve">
<path d="M51.297,14.445c-11.156,0.089-20.089,9.111-20,20.133c0.089,10.933,9.022,19.866,20,19.866h0.133
	c5.333-0.044,10.354-2.133,14.088-5.955c3.734-3.822,5.822-8.844,5.777-14.177C71.207,23.378,62.273,14.445,51.297,14.445z
	 M59.785,42.355c-2.134,2.178-4.978,3.378-8.045,3.378c-5.955,0-10.799-4.623-11.199-10.489l-0.889,0.889
	c-0.489,0.489-1.333,0.489-1.822,0c-0.489-0.489-0.489-1.333,0-1.822l3.066-3.066c0.489-0.489,1.333-0.489,1.822,0l3.066,3.066
	c0.489,0.489,0.489,1.333,0,1.822c-0.267,0.267-0.578,0.355-0.933,0.355c-0.311,0-0.667-0.133-0.934-0.355l-0.8-0.8
	c0.4,4.4,4.133,7.822,8.622,7.822c2.355,0,4.533-0.934,6.179-2.622c0.488-0.489,1.333-0.533,1.822-0.044
	C60.274,41.022,60.274,41.822,59.785,42.355z M65.385,34.622l-3.067,3.067c-0.266,0.267-0.577,0.355-0.933,0.355
	c-0.311,0-0.667-0.133-0.934-0.355l-3.066-3.067c-0.489-0.489-0.489-1.333,0-1.822c0.489-0.489,1.333-0.489,1.822,0l0.845,0.845
	c-0.4-4.4-4.134-7.822-8.622-7.822c-2.489,0-4.845,1.067-6.489,2.933c-0.489,0.534-1.289,0.578-1.822,0.133
	c-0.533-0.489-0.578-1.289-0.133-1.822c2.133-2.444,5.2-3.822,8.444-3.822c5.955,0,10.8,4.622,11.2,10.489l0.888-0.889
	c0.489-0.489,1.334-0.489,1.822,0C65.874,33.289,65.874,34.089,65.385,34.622z"/>
</svg>
