<?xml version="1.0" encoding="utf-8"?>
<!-- Generator: Adobe Illustrator 16.0.0, SVG Export Plug-In . SVG Version: 6.00 Build 0)  -->
<!DOCTYPE svg PUBLIC "-//W3C//DTD SVG 1.1//EN" "http://www.w3.org/Graphics/SVG/1.1/DTD/svg11.dtd">
<svg version="1.1" id="Layer_1" xmlns="http://www.w3.org/2000/svg" xmlns:xlink="http://www.w3.org/1999/xlink" x="0px" y="0px"
	 width="40px" height="40px" viewBox="55 11 40 40" enable-background="new 55 11 40 40" xml:space="preserve">
<path d="M75,11c-11.045,0-20,8.955-20,20s8.955,20,20,20s20-8.955,20-20S86.045,11,75,11z"/>
<g>
	<circle fill="#FFFFFF" cx="72.932" cy="31.842" r="4.126"/>
</g>
<g>
	<path fill="#FFFFFF" d="M80.098,40.746H65.764c-0.955,0-1.737-0.782-1.737-1.738V24.675c0-0.956,0.782-1.737,1.737-1.737h14.334
		c0.956,0,1.737,0.782,1.737,1.737v14.333C81.835,39.964,81.054,40.746,80.098,40.746z M72.932,25.978
		c-3.26,0-5.864,2.606-5.864,5.864c0,3.258,2.604,5.865,5.864,5.865c3.258,0,5.863-2.606,5.863-5.865
		C78.795,28.584,76.189,25.978,72.932,25.978z"/>
</g>
<g>
	<path fill="#FFFFFF" d="M82.703,27.802v8.166l3.476,2.954c0.521,0.434,1.303,0.086,1.303-0.608V25.457
		c0-0.695-0.824-1.042-1.303-0.608L82.703,27.802z"/>
</g>
</svg>
